<?xml version="1.0" encoding="UTF-8"?>
<svg width="128px" height="116px" viewBox="0 0 128 116" version="1.1" xmlns="http://www.w3.org/2000/svg" xmlns:xlink="http://www.w3.org/1999/xlink">
    <!-- Generator: Sketch 42 (36781) - http://www.bohemiancoding.com/sketch -->
    <title>Persistent</title>
    <desc>Created with Sketch.</desc>
    <defs>
        <path d="M28.3569231,109.338947 L2.46153846,63.36 C0.393846154,59.7221053 0.393846154,55.3768421 2.46153846,51.7389474 L28.3569231,5.76 C30.4246154,2.12210526 34.1661538,0 38.2030769,0 L89.8953846,0 C93.9323077,0 97.6738462,2.22315789 99.7415385,5.76 L125.636923,51.7389474 C127.704615,55.3768421 127.704615,59.7221053 125.636923,63.36 L99.7415385,109.338947 C97.6738462,112.976842 93.9323077,115.098947 89.8953846,115.098947 L38.1046154,115.098947 C34.0676923,115.098947 30.3261538,112.875789 28.3569231,109.338947 L28.3569231,109.338947 Z" id="path-1"></path>
    </defs>
    <g id="Page-1" stroke="none" stroke-width="1" fill="none" fill-rule="evenodd">
        <g id="Product-Logos" transform="translate(-1025.000000, -533.000000)">
            <g id="Persistent" transform="translate(1025.000000, 533.000000)">
                <g id="Layer_1">
                    <g id="XMLID_7_">
                        <mask id="mask-2" fill="white">
                            <use xlink:href="#path-1"></use>
                        </mask>
                        <use id="Mask" fill="#4387FB" xlink:href="#path-1"></use>
                        <g mask="url(#mask-2)" id="XMLID_9_" fill="#000000" opacity="0.100000001">
                            <g transform="translate(45.292308, 33.347368)">
                                <polygon points="77.7846154 41.4315789 37.4153846 0 5.90769231 4.04210526 0 20.2105263 4.92307692 25.2631579 0 34.3578947 4.92307692 39.4105263 0 48.5052632 34.4615385 83.8736842 52.1846154 83.8736842"></polygon>
                            </g>
                        </g>
                    </g>
                    <g id="Group-7" transform="translate(44.800000, 32.000000)" fill="#FFFFFF">
                        <polygon id="XMLID_6_" points="29.0461538 29.6421053 29.0461538 40.7578947 0.492307692 40.7578947 0.492307692 49.8526316 37.9076923 49.8526316 37.9076923 29.6421053"></polygon>
                        <polygon id="XMLID_5_" points="9.35384615 21.5578947 9.35384615 10.4421053 37.9076923 10.4421053 37.9076923 1.34736842 0.492307692 1.34736842 0.492307692 21.5578947"></polygon>
                        <polygon id="XMLID_4_" points="14.2769231 15.4947368 14.2769231 26.6105263 0.492307692 26.6105263 0.492307692 35.7052632 24.1230769 35.7052632 24.1230769 24.5894737 37.9076923 24.5894737 37.9076923 15.4947368"></polygon>
                    </g>
                </g>
            </g>
        </g>
    </g>
</svg>
